<?xml version="1.0" encoding="UTF-8" standalone="no" ?>
<!DOCTYPE svg PUBLIC "-//W3C//DTD SVG 1.1//EN" "http://www.w3.org/Graphics/SVG/1.1/DTD/svg11.dtd">
<svg xmlns="http://www.w3.org/2000/svg" xmlns:xlink="http://www.w3.org/1999/xlink" version="1.1" width="1080" height="1080" viewBox="0 0 1080 1080" xml:space="preserve">
<desc>Created with Fabric.js 5.2.4</desc>
<defs>
</defs>
<rect x="0" y="0" width="100%" height="100%" fill="transparent"></rect>
<g transform="matrix(1 0 0 1 540 540)" id="4505b854-6189-45d3-b09e-9518194b9160"  >
<rect style="stroke: none; stroke-width: 1; stroke-dasharray: none; stroke-linecap: butt; stroke-dashoffset: 0; stroke-linejoin: miter; stroke-miterlimit: 4; fill: rgb(255,255,255); fill-rule: nonzero; opacity: 1; visibility: hidden;" vector-effect="non-scaling-stroke"  x="-540" y="-540" rx="0" ry="0" width="1080" height="1080" />
</g>
<g transform="matrix(1 0 0 1 540 540)" id="4ca03ea9-9b7f-48d0-bfcd-fe71369f2f95"  >
</g>
<g transform="matrix(3.38 0 0 3.38 540 540)"  >
<g style=""   >
		<g transform="matrix(1.55 0 0 1.55 -110 0)" id="SvgjsG2197"  >
<path style="stroke: none; stroke-width: 1; stroke-dasharray: none; stroke-linecap: butt; stroke-dashoffset: 0; stroke-linejoin: miter; stroke-miterlimit: 4; fill: rgb(255,255,255); fill-rule: evenodd; opacity: 1;" vector-effect="non-scaling-stroke"  transform=" translate(-49.04, -51.18)" d="M 50.572 94.308 L 48.739000000000004 94.308 C 48.155 91.507 47.667 88.75200000000001 46.99 86.04400000000001 C 46.367000000000004 83.55400000000002 45.313 81.21900000000001 43.742000000000004 79.156 C 41.25300000000001 75.887 38.013000000000005 74.744 33.941 75.411 C 31.733000000000004 75.772 29.421000000000003 75.901 27.198 75.686 C 24.048000000000002 75.381 22.739 73.33000000000001 23.278 70.209 C 23.320999999999998 69.961 23.352999999999998 69.70400000000001 23.442 69.47200000000001 C 24.245 67.37800000000001 23.715 65.59500000000001 22.185 64.05000000000001 C 21.43 63.28700000000001 21.645999999999997 62.44600000000001 22.026 61.65200000000001 C 22.368 60.93500000000001 22.38 60.37800000000001 21.711 59.86500000000001 C 20.729 59.11300000000001 20.695999999999998 58.153000000000006 21.072 57.05500000000001 C 21.493 55.82600000000001 21.32 55.55800000000001 20.070999999999998 55.218 C 19.377 55.029 18.662999999999997 54.906000000000006 17.979999999999997 54.684000000000005 C 16.913999999999998 54.33800000000001 16.511999999999997 53.67100000000001 16.887999999999998 52.607000000000006 C 17.182 51.77400000000001 17.604999999999997 50.93800000000001 18.156 50.25200000000001 C 22.579 44.76400000000001 24.401 38.45700000000001 24.349999999999998 31.48100000000001 C 24.322 27.63800000000001 24.991 23.884000000000007 26.477999999999998 20.311000000000007 C 28.985999999999997 14.287000000000006 33.400999999999996 10.475000000000007 39.808 9.179000000000007 C 47.826 7.555000000000007 55.839 7.604000000000007 63.757999999999996 9.830000000000007 C 68.304 11.108000000000008 72.383 13.254000000000007 75.61 16.797000000000008 C 79.627 21.20500000000001 81.129 26.558000000000007 81.319 32.364000000000004 C 81.565 39.926 79.476 46.868 75.552 53.283 C 73.411 56.781 71.94600000000001 60.557 70.79700000000001 64.47 C 70.07100000000001 66.942 68.68400000000001 68.943 66.64000000000001 70.49 C 64.38900000000001 72.193 61.83400000000002 72.536 59.15400000000002 71.97 C 57.07700000000002 71.532 55.56200000000002 70.205 54.77300000000002 68.288 C 53.960000000000015 66.31 53.432000000000016 64.217 52.73300000000002 62.031 C 52.59000000000002 62.019999999999996 52.11400000000002 62.121 51.832000000000015 61.933 C 51.41300000000002 61.653 50.936000000000014 61.21 50.83900000000001 60.76 C 50.695000000000014 60.097 51.14700000000001 59.562999999999995 51.884000000000015 59.542 C 53.323000000000015 59.502 54.765000000000015 59.510000000000005 56.204000000000015 59.534 C 56.93100000000001 59.549 57.33300000000001 59.992 57.356000000000016 60.705 C 57.381000000000014 61.476 56.96500000000002 61.909 56.192000000000014 61.976 C 55.838000000000015 62.006 55.48200000000001 62.013999999999996 55.13500000000001 62.031 C 54.725000000000016 65.762 57.33400000000001 69.559 60.573000000000015 70.01 C 63.95800000000001 70.482 66.62100000000001 69.156 68.17800000000001 66.12100000000001 C 68.76700000000001 64.974 69.30000000000001 63.77300000000001 69.65700000000001 62.53900000000001 C 70.79100000000001 58.63900000000001 72.62200000000001 55.06800000000001 74.53600000000002 51.51400000000001 C 77.70900000000002 45.619000000000014 79.44400000000002 39.32800000000001 79.41800000000002 32.59200000000001 C 79.396 26.262 76.927 21.099 72.116 17 C 68.239 13.697 63.835 11.611 58.788 10.809999999999999 C 53.30799999999999 9.94 47.837999999999994 9.684 42.349999999999994 10.671 C 33.788999999999994 12.209999999999999 28.639999999999993 17.259 27.145999999999994 25.841 C 26.654999999999994 28.665 26.559999999999995 31.561 26.328999999999994 34.428 C 25.893999999999995 39.824999999999996 24.107999999999993 44.733999999999995 21.070999999999994 49.202 C 20.584999999999994 49.915 20.086999999999996 50.623999999999995 19.644999999999996 51.364999999999995 C 19.004999999999995 52.434999999999995 19.194999999999997 52.956999999999994 20.361999999999995 53.44799999999999 C 20.857999999999993 53.657999999999994 21.377999999999993 53.812999999999995 21.871999999999996 54.028999999999996 C 22.987999999999996 54.516999999999996 23.219999999999995 54.989 22.941999999999997 56.151999999999994 C 22.841999999999995 56.57099999999999 22.705999999999996 56.98199999999999 22.603999999999996 57.400999999999996 C 22.424999999999997 58.132999999999996 22.564999999999994 58.751 23.248999999999995 59.17999999999999 C 24.160999999999994 59.751999999999995 24.342999999999996 60.54699999999999 23.926999999999996 61.510999999999996 C 23.616999999999997 62.23499999999999 23.684999999999995 62.858 24.232999999999997 63.492999999999995 C 25.828999999999997 65.348 25.717999999999996 67.527 25.301 69.743 C 25.241 70.06099999999999 25.165999999999997 70.377 25.113999999999997 70.696 C 24.836999999999996 72.386 25.471999999999998 73.576 27.165999999999997 73.742 C 29.073999999999998 73.929 31.022999999999996 73.724 32.952999999999996 73.661 C 34.601 73.607 36.272 73.303 37.891999999999996 73.48 C 41.562999999999995 73.879 44.318999999999996 75.842 46.18299999999999 79.025 C 48.29099999999999 82.622 49.24399999999999 86.607 50.010999999999996 90.64800000000001 C 50.231 91.812 50.373 92.99 50.572 94.308 M 67.597 22.376 L 48.5 27.598 L 48.5 32.722 L 48.5 34.759 L 48.5 50.919 C 47.507 50.739999999999995 46.361 50.82 45.215 51.239999999999995 C 42.616 52.19499999999999 41.054 54.449999999999996 41.724000000000004 56.275999999999996 C 42.395 58.105 45.044000000000004 58.81099999999999 47.645 57.858 C 49.7 57.102999999999994 51.086000000000006 55.535 51.252 54.007999999999996 L 51.285000000000004 54.007999999999996 L 51.285000000000004 33.998 L 64.762 30.311999999999998 L 64.762 46.742 C 63.772 46.562999999999995 62.625 46.643 61.479 47.062999999999995 C 58.878 48.017999999999994 57.317 50.272 57.987 52.099999999999994 C 58.658 53.925999999999995 61.308 54.63399999999999 63.907000000000004 53.681 C 65.964 52.925999999999995 67.351 51.358 67.51700000000001 49.830999999999996 L 67.54800000000002 49.830999999999996 L 67.54800000000002 29.550999999999995 L 67.59700000000002 29.536999999999995 L 67.59700000000002 22.376 z" stroke-linecap="round" />
</g>
		<g transform="matrix(1.65 0 0 1.65 60 -7.65)" id="SvgjsG2198"  >
<path style="stroke: none; stroke-width: 1; stroke-dasharray: none; stroke-linecap: butt; stroke-dashoffset: 0; stroke-linejoin: miter; stroke-miterlimit: 4; fill: rgb(255,255,255); fill-rule: nonzero; opacity: 1;" vector-effect="non-scaling-stroke"  transform=" translate(-60.79, -12.75)" d="M 3.6 5.720000000000001 L 5.5 5.720000000000001 L 5.5 19.98 L 3.6 19.98 L 3.6 12.440000000000001 L 1.9000000000000001 12.440000000000001 L 1.9000000000000001 19.98 L 2.220446049250313e-16 19.98 L 2.220446049250313e-16 5.720000000000001 L 1.9000000000000001 5.720000000000001 L 1.9000000000000001 10.56 L 3.6 10.56 L 3.6 5.720000000000001 z M 12.494 20 L 11.774 15.059999999999999 L 9.754 15.059999999999999 L 9.094 20 L 7.1739999999999995 20 L 9.334 5.699999999999999 L 11.914 5.699999999999999 L 14.414 20 L 12.494 20 z M 10.014 13.16 L 11.494 13.16 L 10.734 7.96 z M 21.628 20.04 L 19.588 20.04 L 18.488 17.02 L 18.048 17.02 L 18.048 20.04 L 16.148 20.04 L 16.148 5.719999999999999 L 19.128 5.719999999999999 C 20.448 5.719999999999999 21.508 6.779999999999999 21.508 8.099999999999998 L 21.508 14.639999999999997 C 21.508 15.499999999999996 21.067999999999998 16.24 20.387999999999998 16.659999999999997 z M 18.048 7.619999999999999 L 18.048 15.12 L 19.128 15.12 C 19.388 15.12 19.608 14.899999999999999 19.608 14.639999999999999 L 19.608 8.099999999999998 C 19.608 7.839999999999998 19.388 7.619999999999997 19.128 7.619999999999997 L 18.048000000000002 7.619999999999997 z M 29.122 20.04 L 27.082 20.04 L 25.982 17.02 L 25.541999999999998 17.02 L 25.541999999999998 20.04 L 23.642 20.04 L 23.642 5.719999999999999 L 26.622 5.719999999999999 C 27.942 5.719999999999999 29.002 6.779999999999999 29.002 8.099999999999998 L 29.002 14.639999999999997 C 29.002 15.499999999999996 28.561999999999998 16.24 27.881999999999998 16.659999999999997 z M 25.541999999999998 7.619999999999999 L 25.541999999999998 15.12 L 26.622 15.12 C 26.882 15.12 27.102 14.899999999999999 27.102 14.639999999999999 L 27.102 8.099999999999998 C 27.102 7.839999999999998 26.882 7.619999999999997 26.622 7.619999999999997 L 25.542 7.619999999999997 z M 37.596 5.720000000000001 L 34.916 14.4 L 34.916 20 L 32.976 20 L 32.976 14.379999999999999 L 30.516 5.719999999999999 L 32.516 5.719999999999999 L 33.976 10.86 L 35.576 5.72 L 37.596000000000004 5.72 z M 48.884 19.92 L 46.784 12.040000000000003 L 46.484 12.540000000000003 L 46.484 19.980000000000004 L 44.624 19.980000000000004 L 44.624 5.720000000000004 L 46.484 5.720000000000004 L 46.484 8.820000000000004 L 47.724000000000004 5.720000000000004 L 50.024 5.720000000000004 L 48.124 9.840000000000003 L 50.824000000000005 19.92 L 48.88400000000001 19.92 z M 60.678 5.720000000000001 L 62.598 5.720000000000001 L 60.738 20 L 58.758 20 L 57.758 12.84 L 56.818000000000005 20 L 54.83800000000001 20 L 52.83800000000001 5.720000000000001 L 54.75800000000001 5.720000000000001 L 55.79800000000001 13.080000000000002 L 56.75800000000001 5.7200000000000015 L 58.67800000000001 5.7200000000000015 L 59.71800000000001 13.080000000000002 z M 68.172 20 L 67.452 15.059999999999999 L 65.432 15.059999999999999 L 64.772 20 L 62.852000000000004 20 L 65.012 5.699999999999999 L 67.592 5.699999999999999 L 70.092 20 L 68.172 20 z M 65.692 13.16 L 67.172 13.16 L 66.41199999999999 7.96 z M 76.746 16.72 L 76.826 5.639999999999999 L 78.746 5.639999999999999 L 78.62599999999999 20.08 L 75.64599999999999 20.08 L 74.02599999999998 8.899999999999999 L 74.02599999999998 20.08 L 72.10599999999998 20.08 L 72.10599999999998 5.639999999999999 L 75.20599999999997 5.639999999999999 z M 91.57399999999998 5.68 L 94.91399999999999 5.68 L 94.91399999999999 19.96 L 93.03399999999999 19.96 L 93.03399999999999 8.66 L 91.25399999999999 20 L 90.514 20 L 90.33399999999999 19.96 L 90.17399999999999 20 L 89.434 20 L 87.67399999999999 8.66 L 87.67399999999999 19.96 L 85.77399999999999 19.96 L 85.77399999999999 5.6800000000000015 L 89.13399999999999 5.6800000000000015 L 90.35399999999998 13.760000000000002 z M 99.86799999999998 20.04 C 98.24799999999998 20.04 96.92799999999998 18.72 96.92799999999998 17.099999999999998 L 96.92799999999998 5.739999999999998 L 98.82799999999999 5.739999999999998 L 98.82799999999999 17.099999999999998 C 98.82799999999999 17.679999999999996 99.28799999999998 18.159999999999997 99.868 18.159999999999997 C 100.44800000000001 18.159999999999997 100.908 17.679999999999996 100.908 17.099999999999998 L 100.908 5.739999999999998 L 102.808 5.739999999999998 L 102.808 17.099999999999998 C 102.808 18.72 101.48800000000001 20.04 99.86800000000001 20.04 z M 107.56199999999998 20.12 C 106.04199999999999 20.12 104.82199999999999 18.880000000000003 104.82199999999999 17.380000000000003 L 104.82199999999999 15.200000000000003 L 106.76199999999999 15.200000000000003 L 106.76199999999999 17.380000000000003 C 106.76199999999999 17.820000000000004 107.12199999999999 18.180000000000003 107.56199999999998 18.180000000000003 C 108.00199999999998 18.180000000000003 108.34199999999998 17.820000000000004 108.34199999999998 17.380000000000003 L 108.34199999999998 15.480000000000002 L 104.82199999999999 10.620000000000001 L 104.82199999999999 8.14 C 104.82199999999999 6.620000000000001 106.04199999999999 5.380000000000001 107.56199999999998 5.380000000000001 C 109.06199999999998 5.380000000000001 110.28199999999998 6.620000000000001 110.28199999999998 8.14 L 110.28199999999998 10.3 L 108.34199999999998 10.3 L 108.34199999999998 8.14 C 108.34199999999998 7.680000000000001 108.00199999999998 7.340000000000001 107.56199999999998 7.340000000000001 C 107.12199999999999 7.340000000000001 106.76199999999999 7.680000000000001 106.76199999999999 8.14 L 106.76199999999999 9.96 L 110.28199999999998 14.82 L 110.28199999999998 17.38 C 110.28199999999998 18.88 109.06199999999998 20.119999999999997 107.56199999999998 20.119999999999997 z M 114.196 5.68 L 114.196 19.92 L 112.29599999999999 19.92 L 112.29599999999999 5.6800000000000015 L 114.196 5.6800000000000015 z M 118.89 19.96 C 117.41 19.96 116.21 18.76 116.21 17.28 L 116.21 8.4 C 116.21 6.92 117.41 5.720000000000001 118.89 5.720000000000001 C 120.37 5.720000000000001 121.57000000000001 6.920000000000001 121.57000000000001 8.4 L 121.57000000000001 9.200000000000001 L 119.67 9.200000000000001 L 119.67 8.4 C 119.67 7.98 119.31 7.62 118.89 7.62 C 118.47 7.62 118.11 7.98 118.11 8.4 L 118.11 17.28 C 118.11 17.700000000000003 118.47 18.060000000000002 118.89 18.060000000000002 C 119.31 18.060000000000002 119.67 17.700000000000003 119.67 17.28 L 119.67 16 L 121.57000000000001 16 L 121.57000000000001 17.28 C 121.57000000000001 18.76 120.37 19.96 118.89 19.96 z" stroke-linecap="round" />
</g>
		<g transform="matrix(0.45 0 0 0.45 40 17.65)" id="SvgjsG2199"  >
<path style="stroke: none; stroke-width: 1; stroke-dasharray: none; stroke-linecap: butt; stroke-dashoffset: 0; stroke-linejoin: miter; stroke-miterlimit: 4; fill: rgb(255,255,255); fill-rule: nonzero; opacity: 1;" vector-effect="non-scaling-stroke"  transform=" translate(-178.28, -12.82)" d="M 3.46 5.640000000000001 L 3.46 18.28 L 10.74 18.28 L 10.74 20 L 1.5199999999999996 20 L 1.5199999999999996 5.640000000000001 L 3.4599999999999995 5.640000000000001 z M 18.212000000000003 5.640000000000001 L 18.212000000000003 20 L 16.272000000000002 20 L 16.272000000000002 5.640000000000001 L 18.212000000000003 5.640000000000001 z M 35.344 9.84 L 33.524 9.84 C 33.424 7.619999999999999 31.584 6.92 29.964000000000002 6.92 C 28.744000000000003 6.92 26.684 7.26 26.684 9.44 C 26.684 10.66 27.544 11.059999999999999 28.384 11.26 L 32.484 12.2 C 34.344 12.639999999999999 35.744 13.76 35.744 16.04 C 35.744 19.439999999999998 32.584 20.38 30.124 20.38 C 27.464 20.38 26.424 19.58 25.784 19 C 24.564 17.9 24.323999999999998 16.7 24.323999999999998 15.36 L 26.144 15.36 C 26.144 17.96 28.264 18.72 30.104 18.72 C 31.503999999999998 18.72 33.864 18.36 33.864 16.299999999999997 C 33.864 14.799999999999997 33.163999999999994 14.319999999999997 30.804 13.759999999999998 L 27.863999999999997 13.079999999999998 C 26.923999999999996 12.859999999999998 24.804 12.199999999999998 24.804 9.7 C 24.804 7.459999999999999 26.264 5.259999999999999 29.744 5.259999999999999 C 34.763999999999996 5.259999999999999 35.263999999999996 8.259999999999998 35.344 9.84 z M 40.29600000000001 7.359999999999999 L 40.29600000000001 5.64 L 51.956 5.64 L 51.956 7.359999999999999 L 47.096000000000004 7.359999999999999 L 47.096000000000004 20 L 45.156000000000006 20 L 45.156000000000006 7.359999999999999 L 40.29600000000001 7.359999999999999 z M 67.888 18.28 L 67.888 20 L 57.288000000000004 20 L 57.288000000000004 5.640000000000001 L 67.748 5.640000000000001 L 67.748 7.36 L 59.22800000000001 7.36 L 59.22800000000001 11.760000000000002 L 67.08800000000001 11.760000000000002 L 67.08800000000001 13.480000000000002 L 59.22800000000001 13.480000000000002 L 59.22800000000001 18.28 L 67.888 18.28 z M 83.28 17.240000000000002 L 83.28 5.640000000000002 L 85.16 5.640000000000002 L 85.16 20 L 82.97999999999999 20 L 75.67999999999999 8.4 L 75.63999999999999 8.4 L 75.63999999999999 20 L 73.75999999999999 20 L 73.75999999999999 5.640000000000001 L 76.05999999999999 5.640000000000001 L 83.23999999999998 17.240000000000002 L 83.27999999999999 17.240000000000002 z M 99.184 7.359999999999999 L 99.184 5.64 L 110.844 5.64 L 110.844 7.359999999999999 L 105.984 7.359999999999999 L 105.984 20 L 104.044 20 L 104.044 7.359999999999999 L 99.184 7.359999999999999 z M 127.236 12.82 C 127.236 9.440000000000001 125.35600000000001 6.98 122.236 6.98 C 119.116 6.98 117.236 9.440000000000001 117.236 12.82 C 117.236 16.2 119.116 18.66 122.236 18.66 C 125.35600000000001 18.66 127.236 16.2 127.236 12.82 z M 129.236 12.82 C 129.236 15.92 127.59599999999999 20.38 122.23599999999999 20.38 C 116.87599999999999 20.38 115.23599999999999 15.919999999999998 115.23599999999999 12.82 C 115.23599999999999 9.720000000000002 116.87599999999999 5.260000000000001 122.23599999999999 5.260000000000001 C 127.59599999999999 5.260000000000001 129.236 9.72 129.236 12.82 z M 148.07999999999998 14.219999999999999 L 148.07999999999998 20 L 146.14 20 L 146.14 14.219999999999999 L 140.72 5.639999999999999 L 142.98 5.639999999999999 L 147.1 12.54 L 151.22 5.639999999999999 L 153.5 5.639999999999999 z M 169.892 12.82 C 169.892 9.440000000000001 168.012 6.98 164.892 6.98 C 161.772 6.98 159.892 9.440000000000001 159.892 12.82 C 159.892 16.2 161.772 18.66 164.892 18.66 C 168.012 18.66 169.892 16.2 169.892 12.82 z M 171.892 12.82 C 171.892 15.92 170.252 20.38 164.892 20.38 C 159.53199999999998 20.38 157.892 15.919999999999998 157.892 12.82 C 157.892 9.720000000000002 159.53199999999998 5.260000000000001 164.892 5.260000000000001 C 170.252 5.260000000000001 171.892 9.72 171.892 12.82 z M 186.944 5.640000000000001 L 188.884 5.640000000000001 L 188.884 14.96 C 188.884 17.900000000000002 187.04399999999998 20.380000000000003 183.10399999999998 20.380000000000003 C 179.24399999999997 20.380000000000003 177.58399999999997 17.900000000000002 177.58399999999997 15.220000000000002 L 177.58399999999997 5.640000000000002 L 179.52399999999997 5.640000000000002 L 179.52399999999997 14.680000000000001 C 179.52399999999997 17.8 181.42399999999998 18.66 183.16399999999996 18.66 C 184.94399999999996 18.66 186.94399999999996 17.84 186.94399999999996 14.72 L 186.94399999999996 5.640000000000001 z M 197.47599999999997 13.84 L 197.47599999999997 20 L 195.53599999999997 20 L 195.53599999999997 5.640000000000001 L 202.17599999999996 5.640000000000001 C 204.53599999999997 5.640000000000001 206.89599999999996 6.460000000000001 206.89599999999996 9.5 C 206.89599999999996 11.620000000000001 205.81599999999995 12.4 204.89599999999996 12.94 C 205.71599999999995 13.28 206.53599999999994 13.639999999999999 206.61599999999996 15.64 L 206.73599999999996 18.240000000000002 C 206.75599999999997 19.040000000000003 206.85599999999997 19.340000000000003 207.45599999999996 19.680000000000003 L 207.45599999999996 20.000000000000004 L 205.07599999999996 20.000000000000004 C 204.79599999999996 19.120000000000005 204.73599999999996 16.940000000000005 204.73599999999996 16.400000000000002 C 204.73599999999996 15.220000000000002 204.49599999999995 13.840000000000002 202.17599999999996 13.840000000000002 L 197.47599999999997 13.840000000000002 z M 197.47599999999997 7.300000000000001 L 197.47599999999997 12.18 L 201.97599999999997 12.18 C 203.39599999999996 12.18 204.89599999999996 11.82 204.89599999999996 9.7 C 204.89599999999996 7.479999999999999 203.27599999999995 7.299999999999999 202.31599999999995 7.299999999999999 L 197.47599999999994 7.299999999999999 z M 220.71999999999997 7.359999999999999 L 220.71999999999997 5.64 L 232.37999999999997 5.64 L 232.37999999999997 7.359999999999999 L 227.51999999999995 7.359999999999999 L 227.51999999999995 20 L 225.57999999999996 20 L 225.57999999999996 7.359999999999999 L 220.71999999999994 7.359999999999999 z M 246.97199999999995 11.58 L 246.97199999999995 5.64 L 248.91199999999995 5.64 L 248.91199999999995 20 L 246.97199999999995 20 L 246.97199999999995 13.3 L 239.47199999999995 13.3 L 239.47199999999995 20 L 237.53199999999995 20 L 237.53199999999995 5.640000000000001 L 239.47199999999995 5.640000000000001 L 239.47199999999995 11.580000000000002 L 246.97199999999995 11.580000000000002 z M 266.5439999999999 12.82 C 266.5439999999999 9.440000000000001 264.66399999999993 6.98 261.5439999999999 6.98 C 258.4239999999999 6.98 256.5439999999999 9.440000000000001 256.5439999999999 12.82 C 256.5439999999999 16.2 258.4239999999999 18.66 261.5439999999999 18.66 C 264.66399999999993 18.66 266.5439999999999 16.2 266.5439999999999 12.82 z M 268.5439999999999 12.82 C 268.5439999999999 15.92 266.90399999999994 20.38 261.5439999999999 20.38 C 256.1839999999999 20.38 254.54399999999993 15.919999999999998 254.54399999999993 12.82 C 254.54399999999993 9.720000000000002 256.1839999999999 5.260000000000001 261.5439999999999 5.260000000000001 C 266.90399999999994 5.260000000000001 268.5439999999999 9.72 268.5439999999999 12.82 z M 283.59599999999995 5.640000000000001 L 285.53599999999994 5.640000000000001 L 285.53599999999994 14.96 C 285.53599999999994 17.900000000000002 283.69599999999997 20.380000000000003 279.756 20.380000000000003 C 275.89599999999996 20.380000000000003 274.236 17.900000000000002 274.236 15.220000000000002 L 274.236 5.640000000000002 L 276.176 5.640000000000002 L 276.176 14.680000000000001 C 276.176 17.8 278.07599999999996 18.66 279.816 18.66 C 281.59599999999995 18.66 283.59599999999995 17.84 283.59599999999995 14.72 L 283.59599999999995 5.640000000000001 z M 298.2079999999999 13.98 L 298.2079999999999 12.32 L 304.5079999999999 12.32 L 304.5079999999999 20 L 303.24799999999993 20 L 302.78799999999995 18.14 C 301.80799999999994 19.5 300.008 20.380000000000003 298.04799999999994 20.380000000000003 C 295.58799999999997 20.380000000000003 294.3879999999999 19.480000000000004 293.64799999999997 18.76 C 291.448 16.68 291.388 14.220000000000002 291.388 12.700000000000003 C 291.388 9.200000000000003 293.508 5.2600000000000025 298.188 5.2600000000000025 C 300.868 5.2600000000000025 303.848 6.780000000000003 304.268 10.000000000000004 L 302.388 10.000000000000004 C 301.768 7.5000000000000036 299.66799999999995 6.980000000000004 298.08799999999997 6.980000000000004 C 295.508 6.980000000000004 293.388 9.040000000000004 293.388 12.800000000000004 C 293.388 15.720000000000004 294.34799999999996 18.720000000000006 298.16799999999995 18.720000000000006 C 298.888 18.720000000000006 300.04799999999994 18.640000000000008 301.10799999999995 17.800000000000004 C 302.36799999999994 16.800000000000004 302.68799999999993 15.520000000000005 302.68799999999993 13.980000000000004 L 298.2079999999999 13.980000000000004 z M 320.29999999999995 11.58 L 320.29999999999995 5.64 L 322.23999999999995 5.64 L 322.23999999999995 20 L 320.29999999999995 20 L 320.29999999999995 13.3 L 312.79999999999995 13.3 L 312.79999999999995 20 L 310.85999999999996 20 L 310.85999999999996 5.640000000000001 L 312.79999999999995 5.640000000000001 L 312.79999999999995 11.580000000000002 L 320.29999999999995 11.580000000000002 z M 327.3719999999999 7.359999999999999 L 327.3719999999999 5.64 L 339.0319999999999 5.64 L 339.0319999999999 7.359999999999999 L 334.1719999999999 7.359999999999999 L 334.1719999999999 20 L 332.2319999999999 20 L 332.2319999999999 7.359999999999999 L 327.3719999999999 7.359999999999999 z M 354.64399999999995 9.84 L 352.82399999999996 9.84 C 352.72399999999993 7.619999999999999 350.88399999999996 6.92 349.26399999999995 6.92 C 348.0439999999999 6.92 345.984 7.26 345.984 9.44 C 345.984 10.66 346.844 11.059999999999999 347.68399999999997 11.26 L 351.784 12.2 C 353.644 12.639999999999999 355.044 13.76 355.044 16.04 C 355.044 19.439999999999998 351.88399999999996 20.38 349.424 20.38 C 346.76399999999995 20.38 345.724 19.58 345.084 19 C 343.864 17.9 343.624 16.7 343.624 15.36 L 345.444 15.36 C 345.444 17.96 347.564 18.72 349.404 18.72 C 350.804 18.72 353.164 18.36 353.164 16.299999999999997 C 353.164 14.799999999999997 352.464 14.319999999999997 350.104 13.759999999999998 L 347.164 13.079999999999998 C 346.224 12.859999999999998 344.104 12.199999999999998 344.104 9.7 C 344.104 7.459999999999999 345.56399999999996 5.259999999999999 349.044 5.259999999999999 C 354.06399999999996 5.259999999999999 354.56399999999996 8.259999999999998 354.644 9.84 z" stroke-linecap="round" />
</g>
</g>
</g>
</svg>